<?xml version="1.0" encoding="UTF-8"?>
<svg width="14px" height="14px" viewBox="0 0 14 14" version="1.1" xmlns="http://www.w3.org/2000/svg" xmlns:xlink="http://www.w3.org/1999/xlink">
    <title>-mockplus-</title>
    <g id="产线车间计划-PC" stroke="none" stroke-width="1" fill="none" fill-rule="evenodd">
        <g id="产线车间计划" transform="translate(-915.000000, -615.000000)">
            <g id="-mockplus-dup-|125CA55E-029A-4710-B827-D8302665C6DA|列表" transform="translate(232.000000, 447.000000)">
                <g id="编组-2" transform="translate(675.000000, 163.000000)">
                    <g id="-mockplus-dup-|2B03CD47-7A63-4BA9-B120-0421733AEFD6|ico/正常" transform="translate(8.000000, 5.000000)">
                        <g id="ico/正常" transform="translate(0.000000, 1.000000)">
                            <path d="M7.8068272,0.478596352 C7.7311781,0.205333274 7.39152907,0 6.98395024,0 C6.5732837,0 6.23517853,0.210736781 6.16338908,0.487087578 L0.0828996195,11.0177512 L0.0875311971,11.0254705 C-0.0514161309,11.1628739 -0.0243985949,11.4901721 0.164724157,11.7958562 C0.353846909,12.1077158 0.639460861,12.2813999 0.823952036,12.2096105 L0.831671332,12.2211894 L13.1393651,12.2211894 L13.1463125,12.2049789 C13.3516458,12.236628 13.6048387,12.0559965 13.7623123,11.7341018 C13.9475754,11.3643476 13.9352245,10.9475056 13.7476456,10.7707337 L7.8068272,0.478596352 Z" id="路径" fill="#FA4A3E" fill-rule="nonzero"></path>
                            <path d="M7.75,9.25 L7.75,10.75 L6.25,10.75 L6.25,9.25 L7.75,9.25 Z M7.75,3.25 L7.75,8.25 L6.25,8.25 L6.25,3.25 L7.75,3.25 Z" id="形状结合" fill="#FFFFFF"></path>
                        </g>
                    </g>
                </g>
            </g>
        </g>
    </g>
</svg>