<svg xmlns="http://www.w3.org/2000/svg" width="26" height="26" viewBox="0 0 26 26">
  <defs>
    <style>
      .cls-1 {
        fill: #0089f0;
        fill-rule: evenodd;
      }
    </style>
  </defs>
  <path id="删除_点击" class="cls-1" d="M13,0A13,13,0,1,1,0,13,13,13,0,0,1,13,0Zm4.52,11.2L17.095,19.46a0.564,0.564,0,0,1-.557.541H9.463a0.564,0.564,0,0,1-.557-0.541L8.48,11.2a0.558,0.558,0,1,1,1.115-.06l0.4,7.72h6.015l0.4-7.72a0.558,0.558,0,1,1,1.115.06h0ZM19,9.286a0.565,0.565,0,0,1-.558.571H7.559a0.572,0.572,0,0,1,0-1.143h3.07V7.429A0.405,0.405,0,0,1,11.078,7h3.845a0.406,0.406,0,0,1,.45.429V8.714h3.07A0.565,0.565,0,0,1,19,9.286h0Zm-7.395-.572H14.4V8h-2.79V8.714ZM11.839,18h0.012a0.518,0.518,0,0,0,.477-0.542l-0.142-6.177a0.5,0.5,0,0,0-.5-0.5,0.492,0.492,0,0,0-.477.508l0.142,6.19a0.519,0.519,0,0,0,.488.516h0Zm2.3,0a0.506,0.506,0,0,0,.488-0.5L14.77,11.33a0.5,0.5,0,0,0-.477-0.515,0.491,0.491,0,0,0-.5.486l-0.142,6.174a0.5,0.5,0,0,0,.477.524H14.14Zm0,0"/>
</svg>
