<svg xmlns="http://www.w3.org/2000/svg" width="26" height="26" viewBox="0 0 26 26">
  <defs>
    <style>
      .cls-1 {
        fill: #0089f0;
        fill-rule: evenodd;
      }
    </style>
  </defs>
  <path id="删除_默认" class="cls-1" d="M2768,644a13,13,0,1,1-13,13A13,13,0,0,1,2768,644Zm0,1a12,12,0,1,1-12,12A12,12,0,0,1,2768,645Zm4.52,10.2-0.43,8.26a0.559,0.559,0,0,1-.55.542h-7.08a0.559,0.559,0,0,1-.55-0.542l-0.43-8.26a0.564,0.564,0,0,1,.53-0.6,0.552,0.552,0,0,1,.58.54l0.4,7.72h6.02l0.4-7.72a0.556,0.556,0,1,1,1.11.061h0Zm1.48-1.913a0.565,0.565,0,0,1-.56.571h-10.88a0.572,0.572,0,0,1,0-1.143h3.07v-1.285a0.406,0.406,0,0,1,.45-0.429h3.84a0.406,0.406,0,0,1,.45.429v1.285h3.07a0.566,0.566,0,0,1,.56.572h0Zm-7.39-.572h2.79V652h-2.79v0.714Zm0.23,9.287h0.01a0.526,0.526,0,0,0,.48-0.542l-0.14-6.177a0.5,0.5,0,0,0-.5-0.5,0.491,0.491,0,0,0-.48.507l0.14,6.19a0.52,0.52,0,0,0,.49.517h0Zm2.3,0a0.514,0.514,0,0,0,.49-0.5l0.14-6.169a0.49,0.49,0,1,0-.98-0.028l-0.14,6.174a0.51,0.51,0,0,0,.48.525h0.01Zm0,0" transform="translate(-2755 -644)"/>
</svg>
