<?xml version="1.0" encoding="UTF-8"?>
<svg width="16px" height="16px" viewBox="0 0 16 16" version="1.1" xmlns="http://www.w3.org/2000/svg" xmlns:xlink="http://www.w3.org/1999/xlink">
    <title>帮 助备份</title>
    <g id="产线车间计划-PC" stroke="none" stroke-width="1" fill="none" fill-rule="evenodd">
        <g id="产线车间计划" transform="translate(-1056.000000, -271.000000)" fill="#7D8AA1" fill-rule="nonzero">
            <g id="帮-助备份" transform="translate(1056.000000, 271.000000)">
                <path d="M7.98685238,0.123078498 L7.98685279,0.123078498 C3.58326543,0.127431453 0.0145754248,3.60461781 0.0101063657,7.89529267 L0.0101063657,7.89499525 C0.0144067917,12.1861108 3.58366316,15.6636133 7.98770282,15.6675091 L7.98770252,15.6675091 C12.3917422,15.6631551 15.9606131,12.1852823 15.9644488,7.89416672 L15.9644488,7.89428038 C15.9594063,3.60372891 12.3904397,0.127037367 7.98696088,0.123078498 L7.98685238,0.123078498 Z" id="路径" fill-opacity="0.25314139"></path>
                <path d="M8.22769469,10.2588851 L8.2276947,10.2870903 C8.37582145,10.3127993 8.51432145,10.3742659 8.63088951,10.4651247 L8.71401103,10.5386803 C8.90888675,10.7244395 9.01618391,10.980493 9.01043243,11.2460657 C9.01043243,11.4782882 8.93806392,11.6854395 8.79734738,11.8609905 L8.70474794,11.9624769 C8.51247025,12.1440194 8.25458508,12.2445285 7.98685237,12.2422721 L7.9694839,12.2422721 C7.74293882,12.2438958 7.52366702,12.1719557 7.34531484,12.0398369 L7.24348302,11.9534512 C7.05178247,11.7656278 6.94506244,11.5109492 6.94706162,11.2460658 C6.94706162,10.9572449 7.05127227,10.7248344 7.25274619,10.5386803 C7.43453587,10.3525263 7.68232563,10.2588851 7.97874703,10.2588851 L8.22769469,10.2588851 Z M8.10264194,3.93754454 C8.85643229,3.93754454 9.47822249,4.14287811 9.94601251,4.55241705 C10.4323289,4.96195599 10.6720134,5.52944383 10.6627502,6.23682927 C10.6627502,6.79529146 10.5099079,7.27929202 10.2042233,7.6606258 L10.2042234,7.66175394 C10.1460198,7.73508736 10.0086727,7.87028159 9.51932562,8.29280376 L9.26748545,8.50903697 C9.14578193,8.60707988 9.04044518,8.72250432 8.95491591,8.85113448 L8.87611655,8.98401193 C8.77832137,9.16466775 8.72893457,9.36646334 8.73253743,9.57067928 L8.73253743,9.98924387 L7.08832499,9.98924387 L7.08832499,9.57067928 C7.08832499,9.12390953 7.16590403,8.76062706 7.32800948,8.46278056 C7.49011493,8.14688275 7.89190488,7.70913865 8.59011621,7.1224713 L8.76148482,6.93631726 C8.91638435,6.76652501 9.00421964,6.54856681 9.00927458,6.32144475 C9.00927458,6.02359825 8.92359027,5.79118772 8.76148482,5.62421317 C8.59937936,5.46626427 8.35043171,5.38164879 8.02506291,5.38164879 C7.62443086,5.38164879 7.33727263,5.49446943 7.17516718,5.72575175 C7.01306173,5.94011098 6.92737742,6.24698313 6.92737742,6.65652207 L6.92737742,6.89908645 L5.30284921,6.89908645 L5.30284921,6.65539386 C5.30284921,5.83631598 5.55179687,5.16616136 6.04853429,4.68216079 C6.54527171,4.18913458 7.24232515,3.93754454 8.10264194,3.93754454 Z" id="形状结合"></path>
            </g>
        </g>
    </g>
</svg>