<svg xmlns="http://www.w3.org/2000/svg" width="13" height="14" viewBox="0 0 13 14">
  <defs>
    <style>
      .cls-1 {
        fill: #fff;
        fill-rule: evenodd;
      }
    </style>
  </defs>
  <path id="入库" class="cls-1" d="M80.562,93.908l-5.457-3.732a1.013,1.013,0,0,0-1.155.011l-5.526,3.929a1.008,1.008,0,0,0-.424.821v5.425h5.834L72.053,98.55,73.279,97.3l3.262,3.319a0.892,0.892,0,0,1,0,1.247L74.447,104H79.99A1.01,1.01,0,0,0,81,102.991V94.74A1.007,1.007,0,0,0,80.562,93.908Zm-8.509,10.031,1.782-1.812H68v1.162a0.512,0.512,0,0,0,.1.3,0.521,0.521,0,0,0,.507.405h3.5Z" transform="translate(-68 -90)"/>
</svg>
