<?xml version="1.0" encoding="UTF-8"?>
<svg width="32px" height="32px" viewBox="0 0 32 32" version="1.1" xmlns="http://www.w3.org/2000/svg" xmlns:xlink="http://www.w3.org/1999/xlink">
    <title>-mockplus-</title>
    <defs>
        <linearGradient x1="18.3012959%" y1="11.1314726%" x2="82.3874463%" y2="88.0865368%" id="linearGradient-1">
            <stop stop-color="#B87DFD" offset="0%"></stop>
            <stop stop-color="#917EF7" offset="100%"></stop>
        </linearGradient>
        <path d="M23.6608187,17.4814815 C24.584523,17.4814815 25.3333333,18.2110915 25.3333333,19.1111111 C25.3333333,20.0111307 24.584523,20.7407407 23.6608187,20.7407407 C22.8953991,20.7407407 22.2500699,20.2397565 22.05138,19.5559641 L17.2748538,19.5555556 C16.687042,19.5555556 16.2105263,20.0198529 16.2105263,20.5925926 C16.2105263,21.1366953 16.6405817,21.5829288 17.1875624,21.6261919 L17.2748538,21.6296296 L21.5321637,21.6296296 C22.6238143,21.6296296 23.5087719,22.491896 23.5087719,23.5555556 C23.5087719,24.5825372 22.6837936,25.4217754 21.644328,25.4784327 L21.5321637,25.4814815 L17.3636078,25.4826358 C17.1646655,26.1660467 16.5195273,26.6666667 15.754386,26.6666667 C14.8306816,26.6666667 14.0818713,25.9370566 14.0818713,25.037037 C14.0818713,24.1370174 14.8306816,23.4074074 15.754386,23.4074074 C16.5199012,23.4074074 17.1652961,23.9085168 17.3638992,24.5924404 L21.5321637,24.5925926 C22.1199756,24.5925926 22.5964912,24.1282953 22.5964912,23.5555556 C22.5964912,23.0114528 22.1664359,22.5652194 21.6194551,22.5219563 L21.5321637,22.5185185 L17.2748538,22.5185185 C16.1832032,22.5185185 15.2982456,21.6562521 15.2982456,20.5925926 C15.2982456,19.565611 16.123224,18.7263728 17.1626896,18.6697154 L17.2748538,18.6666667 L22.05138,18.6662581 C22.2500699,17.9824657 22.8953991,17.4814815 23.6608187,17.4814815 Z M15.754386,24.2962963 C15.3345204,24.2962963 14.994152,24.6279372 14.994152,25.037037 C14.994152,25.4461369 15.3345204,25.7777778 15.754386,25.7777778 C16.1742516,25.7777778 16.5146199,25.4461369 16.5146199,25.037037 C16.5146199,24.6279372 16.1742516,24.2962963 15.754386,24.2962963 Z M21.2280702,8 C22.1175632,8 22.8448775,8.67656569 22.8975324,9.53035714 L22.9005848,9.62962963 L22.9005848,16.3315216 C22.9005848,16.583441 22.6963638,16.787662 22.4444444,16.787662 C22.1925251,16.787662 21.9883041,16.583441 21.9883041,16.3315216 L21.9883041,9.62962963 C21.9883041,9.24609855 21.6891523,8.93064658 21.3057997,8.89271325 L21.2280702,8.88888889 L9.67251462,8.88888889 C9.27889062,8.88888889 8.95513728,9.18037017 8.9162057,9.55389319 L8.9122807,9.62962963 L8.9122807,23.8518519 C8.9122807,24.2353829 9.21143254,24.5508349 9.59478512,24.5887682 L9.67251462,24.5925926 L12.4971375,24.5925926 C12.7425974,24.5925926 12.9415819,24.7915771 12.9415819,25.037037 C12.9415819,25.2824969 12.7425974,25.4814815 12.4971375,25.4814815 L9.67251462,25.4814815 C8.78302157,25.4814815 8.05570734,24.8049158 8.00305237,23.9511243 L8,23.8518519 L8,9.62962963 C8,8.7629441 8.69437005,8.05427895 9.57062969,8.0029741 L9.67251462,8 L21.2280702,8 Z M23.6608187,18.3703704 C23.2409531,18.3703704 22.9005848,18.7020113 22.9005848,19.1111111 C22.9005848,19.5202109 23.2409531,19.8518519 23.6608187,19.8518519 C24.0806843,19.8518519 24.4210526,19.5202109 24.4210526,19.1111111 C24.4210526,18.7020113 24.0806843,18.3703704 23.6608187,18.3703704 Z M18.9590643,15.5555556 C19.2045242,15.5555556 19.4035088,15.7545401 19.4035088,16 C19.4035088,16.2454599 19.2045242,16.4444444 18.9590643,16.4444444 L11.9415205,16.4444444 C11.6960606,16.4444444 11.497076,16.2454599 11.497076,16 C11.497076,15.7545401 11.6960606,15.5555556 11.9415205,15.5555556 L18.9590643,15.5555556 Z M18.9590643,12 C19.2045242,12 19.4035088,12.1989846 19.4035088,12.4444444 C19.4035088,12.6899043 19.2045242,12.8888889 18.9590643,12.8888889 L11.9415205,12.8888889 C11.6960606,12.8888889 11.497076,12.6899043 11.497076,12.4444444 C11.497076,12.1989846 11.6960606,12 11.9415205,12 L18.9590643,12 Z" id="path-2"></path>
        <filter x="-26.0%" y="-24.1%" width="151.9%" height="148.2%" filterUnits="objectBoundingBox" id="filter-3">
            <feOffset dx="0" dy="0" in="SourceAlpha" result="shadowOffsetOuter1"></feOffset>
            <feGaussianBlur stdDeviation="1.5" in="shadowOffsetOuter1" result="shadowBlurOuter1"></feGaussianBlur>
            <feColorMatrix values="0 0 0 0 0.360784314   0 0 0 0 0.180392157   0 0 0 0 0.756862745  0 0 0 1 0" type="matrix" in="shadowBlurOuter1"></feColorMatrix>
        </filter>
    </defs>
    <g id="产线车间计划-PC" stroke="none" stroke-width="1" fill="none" fill-rule="evenodd">
        <g id="产线车间计划详情备份" transform="translate(-276.000000, -174.000000)">
            <g id="messagework_icon_plan_unread" transform="translate(276.000000, 174.000000)">
                <rect id="矩形" fill="url(#linearGradient-1)" x="0" y="0" width="32" height="32" rx="4"></rect>
                <g id="形状结合">
                    <use fill="black" fill-opacity="1" filter="url(#filter-3)" xlink:href="#path-2"></use>
                    <use fill="#FFFFFF" fill-rule="evenodd" xlink:href="#path-2"></use>
                </g>
            </g>
        </g>
    </g>
</svg>