<svg xmlns="http://www.w3.org/2000/svg" width="13" height="14" viewBox="0 0 13 14">
  <defs>
    <style>
      .cls-1 {
        fill: #fff;
        fill-rule: evenodd;
      }
    </style>
  </defs>
  <path id="出库" class="cls-1" d="M68.438,137.908l5.457-3.732a1.014,1.014,0,0,1,1.155.011l5.526,3.929a1.007,1.007,0,0,1,.424.821v5.425H75.166l1.782-1.812L75.721,141.3l-3.262,3.319a0.892,0.892,0,0,0,0,1.247L74.553,148H69.01A1.01,1.01,0,0,1,68,146.991V138.74A1.008,1.008,0,0,1,68.438,137.908Zm8.509,10.031-1.782-1.812H81v1.162a0.512,0.512,0,0,1-.1.3,0.521,0.521,0,0,1-.507.405h-3.5Z" transform="translate(-68 -134)"/>
</svg>
