<?xml version="1.0" encoding="UTF-8"?>
<svg width="12px" height="12px" viewBox="0 0 12 12" version="1.1" xmlns="http://www.w3.org/2000/svg" xmlns:xlink="http://www.w3.org/1999/xlink">
    <title>编组备份 2</title>
    <g id="质量管理" stroke="none" stroke-width="1" fill="none" fill-rule="evenodd">
        <g transform="translate(-1237.000000, -532.000000)" fill-rule="nonzero" id="-mockplus-dup-|70C9171A-2998-4CC9-A271-BF5C267193CC|质量管理/SPC">
            <g transform="translate(656.000000, 414.000000)">
                <g id="-mockplus-dup-|5858F9A1-681A-41E5-A09A-97A1886F5924|质量管理/SPC/图表" transform="translate(16.000000, 68.000000)">
                    <g id="编组备份-2" transform="translate(565.000000, 50.000000)">
                        <path d="M2.05053754,10.849566 L2.05053754,7.05719971 C2.05053754,4.78868689 3.84824276,2.94883882 6.06742503,2.94883882 C8.2866073,2.94883882 10.0843242,4.78869889 10.0843242,7.05719971 L10.0843242,10.849566 L11.4555602,10.849566 C11.7403262,10.849566 11.9711858,11.0857945 11.9711858,11.3771829 C11.9711858,11.6685714 11.7403262,11.9047998 11.4555602,11.9047998 L0.5156256,11.9047998 C0.230847925,11.9047998 -6.75015599e-14,11.6685714 -6.75015599e-14,11.3771829 C-6.75015599e-14,11.0857945 0.230847925,10.849566 0.5156256,10.849566 L2.05054926,10.849566 L2.05053754,10.849566 Z M9.39677265,0.937994914 C9.58280803,1.04875849 9.6463706,1.293201 9.53922594,1.48345485 L8.82698293,2.75016708 L8.15357589,2.35160048 L8.86584235,1.08488825 C8.97177997,0.89464639 9.20958884,0.829629599 9.3944289,0.937994914 L9.39677265,0.937994914 Z M6.06625315,3.55271368e-15 C6.2993628,3.55271368e-15 6.48773021,0.179413726 6.48773021,0.402175977 L6.48773021,1.83744981 L5.64478782,1.83744981 L5.64478782,0.400976847 C5.6447761,0.179425718 5.83314351,3.55271368e-15 6.06625315,3.55271368e-15 L6.06624143,3.55271368e-15 L6.06625315,3.55271368e-15 Z M2.73808912,0.937994914 C2.92292918,0.828418479 3.16072633,0.893435269 3.26787099,1.08249 C3.26787099,1.08249 3.26787099,1.08368912 3.26904287,1.08368912 L3.98130932,2.35040135 L3.30789057,2.74895596 L2.59562411,1.48224373 C2.48851461,1.29198988 2.55207719,1.04875849 2.7380774,0.937994914 L2.73808912,0.937994914 Z M0.301090194,3.44132123 C0.407039536,3.25105538 0.644848407,3.18482747 0.830872061,3.29440391 C0.830872061,3.29440391 0.832043937,3.29440391 0.832043937,3.29561503 L2.06583053,4.02770745 L1.67733008,4.7188616 L0.443531766,3.98554606 C0.25753155,3.87598162 0.193945538,3.63153911 0.301090194,3.44129725 L0.301090194,3.44132123 Z M11.8337599,3.44132123 C11.9409045,3.6315511 11.8773185,3.87599361 11.6913183,3.98675718 L10.4575083,4.71765048 L10.0690078,4.02650832 L11.3027944,3.29440391 C11.4876345,3.18483946 11.7254316,3.24985625 11.8325763,3.43889899 C11.8325763,3.44009812 11.8337481,3.44009812 11.8337481,3.44129725 L11.8337481,3.44132123 L11.8337599,3.44132123 Z" id="形状" fill="#F94A3E"></path>
                        <polygon id="路径" fill="#FFFFFF" points="6.35821443 4.60445267 4.37684103 7.94221709 5.96146397 7.94221709 5.56472523 10.4455434 7.54609862 7.10777898 5.96145225 7.10777898 6.35820271 4.60445267"></polygon>
                    </g>
                </g>
            </g>
        </g>
    </g>
</svg>